<?xml version="1.0" encoding="UTF-8" standalone="no"?>
<!-- Created with Inkscape by Alexander Zelenkov lll555@yandex.ru -->

<svg
   width="56.0737mm"
   height="53.73608mm"
   viewBox="0 0 56.0737 53.73608"
   version="1.1"
   id="svg5"
   xmlns="http://www.w3.org/2000/svg"
   xmlns:svg="http://www.w3.org/2000/svg">
  <defs
     id="defs2" />
  <g
     id="layer2"
     transform="translate(-50.716217,-52.008437)">
    <path
       style="fill:#222221;fill-opacity:1;stroke-width:0.27046"
       d="m 64.033783,75.761971 -2.189189,-4.097003 -9.851351,3.352213 -1.277026,-5.57925 11.219593,-0.562555 1.003377,-2.371557 c 0,0 -12.191547,0.702467 -11.858105,0.05337 l 1.64189,-6.263471 12.222974,4.020978 0.638513,-1.368177 -10.85473,-5.214319 6.476353,-4.948462 6.658782,9.220236 3.283785,-0.494061 -6.476353,-9.425456 7.75338,-0.07602 1.641891,8.893349 2.91892,0.60813 -2.18919,-9.296261 6.111485,2.135952 -1.550674,7.563154 2.006755,0.858924 1.641893,-7.73046 3.375,1.801473 -2.827704,6.787912 2.91892,1.497438 1.641892,-7.783694 3.283784,2.059927 -2.645271,6.962748 1.641891,1.558206 3.101353,-6.696696 3.192566,3.884254 -3.922297,4.971184 2.189189,2.417195 3.466216,-5.541271 1.915545,4.097071 -4.378382,3.374867 0.820947,1.5658 4.104725,-3.268524 0.55744,3.260931 -3.385138,3.329292 0.820945,2.052266 3.192563,-2.979688 0.82096,3.154525 -3.466227,2.698374 0.273651,1.976309 3.831076,-2.363963 c -0.12162,0.187092 0.21284,2.630014 0.0912,3.945021 l -4.195944,0.387653 -0.456081,2.082715 4.652035,-0.843799 -0.27366,3.352145 -4.287162,-0.676492 -1.64189,0.881713 1.094596,1.847045 -2.736489,-0.638447 -2.189189,-1.900283 3.101353,-2.280339 -1.641893,-5.320793 z"
       id="path1573" />
    <ellipse
       style="fill:#c87137;fill-opacity:1;stroke-width:0.28709"
       id="path3625"
       cx="87.759163"
       cy="88.560432"
       rx="9.1216221"
       ry="9.1534777" />
    <ellipse
       style="fill:#d3bc5f;fill-opacity:1;stroke-width:0.265704"
       id="path3731"
       cx="82.298904"
       cy="91.484917"
       rx="9.5882826"
       ry="7.6629853" />
    <ellipse
       style="fill:#222221;fill-opacity:1;stroke-width:0.264999"
       id="path3623-7"
       cx="77.241997"
       cy="-76.967789"
       rx="11.949325"
       ry="8.0726357"
       transform="scale(1,-1)" />
    <ellipse
       style="fill:#c87137;fill-opacity:1;stroke-width:0.284119"
       id="path3623"
       cx="76.703796"
       cy="-66.744965"
       rx="11.762279"
       ry="9.4271269"
       transform="matrix(0.99396784,0.10967196,0,-1,0,0)" />
    <path
       style="fill:#222221;fill-opacity:1;stroke-width:0.239457"
       d="m 72.477875,76.912269 2.889413,5.693395 c 0,0 -10.389484,6.706688 -14.89965,2.615509 -4.510162,-4.091188 -2.577235,-4.091188 -2.577235,-4.091188 0,0 10.586532,4.108481 14.587472,-4.217716 z"
       id="path4034-6" />
    <path
       style="fill:#c87137;fill-opacity:1;stroke-width:0.264999"
       d="m 72.35089,75.938138 3.272483,6.156531 c 0,0 -11.766891,7.252253 -16.875001,2.828266 -5.108106,-4.423986 -2.918917,-4.423986 -2.918917,-4.423986 0,0 11.990062,4.442684 16.521435,-4.560811 z"
       id="path4034" />
    <ellipse
       style="fill:#222221;fill-opacity:1;stroke-width:0.264999"
       id="path4251"
       cx="4.7331333"
       cy="97.112923"
       rx="2.3190913"
       ry="2.6256955"
       transform="rotate(-31.773299)" />
    <path
       id="path6743"
       style="fill:#222221;fill-opacity:1;stroke-width:0.271015"
       d="m 69.000738,72.215815 a 4.3756591,2.8253205 76.017478 0 0 -1.764824,4.851751 4.3756591,2.8253205 76.017478 0 0 1.764521,3.060418 5.0426635,5.7564282 81.540313 0 1 2.46124,-1.111703 5.0426635,5.7564282 81.540313 0 1 1.262265,-0.144522 4.3756591,2.8253205 76.017478 0 0 0.03916,-2.988937 4.3756591,2.8253205 76.017478 0 0 -3.762362,-3.667007 z" />
    <path
       id="ellipse4309"
       style="fill:#d7f4ee;fill-opacity:1;stroke-width:0.264999"
       d="m 69.692913,72.138667 a 4.3652811,2.7076967 84.724266 0 0 -2.295007,4.595599 4.3652811,2.7076967 84.724266 0 0 1.281068,3.251332 5.0353608,5.5116739 84.724266 0 1 2.476212,-0.801069 5.0353608,5.5116739 84.724266 0 1 1.215415,0.01128 4.3652811,2.7076967 84.724266 0 0 0.420053,-2.959511 4.3652811,2.7076967 84.724266 0 0 -3.097741,-4.097633 z" />
    <path
       id="path6740"
       style="fill:#222221;fill-opacity:1;stroke-width:0.275376"
       d="m 76.224694,71.959147 a 4.509768,2.8302295 76.99789 0 0 -1.764824,5.00914 4.509768,2.8302295 76.99789 0 0 1.764521,3.159697 5.2015432,5.7616321 78.920541 0 1 2.46124,-1.147766 5.2015432,5.7616321 78.920541 0 1 1.262265,-0.14921 4.509768,2.8302295 76.99789 0 0 0.03916,-3.085897 4.509768,2.8302295 76.99789 0 0 -3.762362,-3.785964 z" />
    <path
       id="path4445"
       style="fill:#0055d4;fill-opacity:1;stroke-width:0.264999"
       d="m 71.273169,74.340165 a 2.0650094,2.5720434 0 0 0 -2.06499,2.571936 2.0650094,2.5720434 0 0 0 1.274341,2.374532 5.0353608,5.5116739 84.724266 0 1 0.672827,-0.102319 5.0353608,5.5116739 84.724266 0 1 1.084171,0 2.0650094,2.5720434 0 0 0 0.196371,-0.148311 4.3652811,2.7076967 84.724266 0 0 0.355017,-2.799829 4.3652811,2.7076967 84.724266 0 0 -0.268718,-1.371493 2.0650094,2.5720434 0 0 0 -1.249019,-0.524516 z" />
    <path
       id="ellipse4309-3"
       style="fill:#d7f4ee;fill-opacity:1;stroke-width:0.264999"
       d="m 76.397528,72.215815 a 4.3652811,2.7076967 77.363707 0 0 -1.68734,4.851751 4.3652811,2.7076967 77.363707 0 0 1.68705,3.060418 5.0353608,5.5116739 77.363707 0 1 2.353179,-1.111703 5.0353608,5.5116739 77.363707 0 1 1.206845,-0.144522 4.3652811,2.7076967 77.363707 0 0 0.03744,-2.988937 4.3652811,2.7076967 77.363707 0 0 -3.597174,-3.667007 z" />
    <path
       id="path4451"
       style="fill:#0055d4;fill-opacity:1;stroke-width:0.264999"
       d="m 78.878389,74.354635 a 2.0554576,2.5507782 0 0 0 -2.055688,2.551265 2.0554576,2.5507782 0 0 0 1.206645,2.322856 5.0353608,5.5116739 77.363707 0 1 0.720886,-0.21239 5.0353608,5.5116739 77.363707 0 1 1.207161,-0.144694 4.3652811,2.7076967 77.363707 0 0 0.03721,-2.988965 4.3652811,2.7076967 77.363707 0 0 -0.476973,-1.400948 2.0554576,2.5507782 0 0 0 -0.639238,-0.127124 z" />
    <ellipse
       style="fill:#000000;fill-opacity:1;stroke-width:0.333847"
       id="path4594"
       cx="71.724991"
       cy="77.904831"
       rx="0.71090078"
       ry="1.13117" />
    <ellipse
       style="fill:#000000;fill-opacity:1;stroke-width:0.333847"
       id="ellipse4856"
       cx="78.829636"
       cy="77.953293"
       rx="0.71090078"
       ry="1.13117" />
    <path
       style="fill:#afdde9;fill-opacity:1;stroke-width:0.0465503"
       d="m 71.465562,77.760722 -0.967496,0.348298 0.03096,-1.160992 z"
       id="path4968" />
    <path
       style="fill:#afdde9;fill-opacity:1;stroke-width:0.0465503"
       d="m 78.818517,77.825222 -0.967496,0.348298 0.03096,-1.160992 z"
       id="path4970" />
    <ellipse
       style="fill:#afdde9;fill-opacity:1;stroke-width:0.264999"
       id="path5024"
       cx="54.534416"
       cy="79.39901"
       rx="0.35474783"
       ry="0.83849484" />
    <path
       style="fill:none;fill-rule:evenodd;stroke:#000000;stroke-width:0.264583"
       id="path5079"
       d="m 79.721512,92.685936 c 0.07688,0.125802 -0.120413,0.166817 -0.200357,0.12244 -0.182853,-0.101503 -0.149632,-0.360598 -0.02655,-0.493736 0.207453,-0.224396 0.567552,-0.16652 0.759552,0.04579 0.270439,0.299041 0.186031,0.767849 -0.112158,1.013585 -0.385261,0.317492 -0.962684,0.206442 -1.259733,-0.175208 -0.364565,-0.468394 -0.22718,-1.153142 0.236018,-1.499963 0.549379,-0.411348 1.340003,-0.24801 1.73547,0.295166 0.08312,0.114162 0.147704,0.241585 0.19117,0.375924"
       transform="translate(0.12899921,2.7089834)" />
    <path
       style="display:inline;fill:#222221;fill-opacity:1;stroke-width:0.264999"
       d="m 81.364864,97.236485 c 0,0 -18.111133,4.999675 -9.539133,5.199325 2.769359,0.0645 -2.658888,2.43724 -2.658888,2.43724 0,0 4.704215,-0.35033 7.623133,-0.53277 2.918918,-0.18243 1.79775,-1.48439 5.50997,-1.16288 5.128406,0.44415 -5.297349,2.83607 5.632485,2.54218 1.92351,-0.0517 -2.267439,-1.25299 1.928506,-1.80029 2.715469,-1.33843 5.228323,0.87042 6.456118,-0.81178 l 4.395925,-0.57591 c 0,0 -2.655548,-1.73769 -0.55757,-1.55526 2.09797,0.18243 6.97859,0.52707 5.06305,-0.65875 -1.91554,-1.185807 -1.74686,-1.437323 0.62476,-1.619756 2.37162,-0.182433 -0.11021,-1.807061 -3.06928,-3.174234 -2.71436,-1.254107 -7.462183,3.187985 -6.550022,1.819743 0.912162,-1.368245 -1.123203,-4.676059 -2.673883,-2.942951 -1.550675,1.733108 -1.786542,0.282029 -6.256138,1.194193 -4.469593,0.912161 -5.929053,1.64189 -5.929053,1.64189 z"
       id="path6593" />
  </g>
  <g
     id="layer3"
     transform="translate(-50.716217,-52.008437)">
    <path
       style="fill:#37c871;fill-opacity:1;stroke-width:0.264999"
       d="m 67.853583,86.816467 c 0,0 7.054666,2.821946 9.223444,7.159456 0.0645,0.129 -2.257487,4.90197 -2.257487,4.90197 -1.320568,-4.056772 -16.705397,-6.320961 -16.705397,-6.320961 3.075632,-2.179486 9.73944,-5.740465 9.73944,-5.740465 z"
       id="path5160" />
    <path
       style="fill:#008066;fill-opacity:1;stroke-width:0.264999"
       d="m 68.227411,87.448293 c 0,0 7.054666,2.821946 9.223444,7.159456 0.0645,0.129 -2.257487,4.901974 -2.257487,4.901974 -1.320568,-4.056776 -16.705397,-6.320965 -16.705397,-6.320965 3.075632,-2.179486 9.73944,-5.740465 9.73944,-5.740465 z"
       id="path5107" />
    <path
       style="fill:#37c871;fill-opacity:1;stroke-width:0.264999"
       d="m 68.536738,88.235458 c 0,0 7.054666,2.821946 9.223444,7.159456 0.0645,0.129 -2.257487,4.901966 -2.257487,4.901966 -1.320568,-4.056768 -16.705397,-6.320957 -16.705397,-6.320957 3.075632,-2.179486 9.73944,-5.740465 9.73944,-5.740465 z"
       id="path5158" />
    <path
       style="fill:#008066;fill-opacity:1;stroke-width:0.264999"
       d="m 68.756578,89.035794 c 0,0 7.054666,2.821946 9.223444,7.159456 0.0645,0.129 -2.257487,4.90198 -2.257487,4.90198 -1.320568,-4.056782 -16.705397,-6.320971 -16.705397,-6.320971 3.075632,-2.179486 9.73944,-5.740465 9.73944,-5.740465 z"
       id="path5168" />
    <path
       style="fill:#5fd38d;fill-opacity:1;stroke-width:0.195664"
       d="m 68.936852,90.42396 c 0,0 5.720798,1.736475 7.554033,4.625745 0.05452,0.08593 -1.705984,3.384781 -1.705984,3.384781 -1.146659,-2.720232 -13.539045,-3.866646 -13.539045,-3.866646 2.420875,-1.557517 7.690996,-4.14388 7.690996,-4.14388 z"
       id="path5170" />
    <path
       style="fill:#008066;fill-opacity:1;stroke-width:0.173514"
       d="m 69.142827,90.953127 c 0,0 5.164154,1.512765 6.819012,4.029812 0.04922,0.07486 -1.539989,2.94872 -1.539989,2.94872 -1.035087,-2.369785 -12.22167,-3.368507 -12.22167,-3.368507 2.185319,-1.356862 6.942647,-3.610025 6.942647,-3.610025 z"
       id="path5172" />
    <ellipse
       style="fill:#5fd38d;fill-opacity:1;stroke-width:0.392498"
       id="path5433"
       cx="38.913609"
       cy="110.32108"
       rx="2.6122339"
       ry="1.2577423"
       transform="rotate(-17.41217)" />
  </g>
  <g
     id="layer4"
     transform="translate(-50.716217,-52.008437)">
    <g
       id="g6515"
       transform="translate(27.992829,10.545685)">
      <path
         style="fill:#222221;fill-opacity:1;stroke-width:0.264999"
         d="m 65.994933,96.324324 -0.88936,1.254222 c 0,0 3.967906,0.706925 4.766048,2.394427 0.798142,1.687497 2.394426,-2.143583 2.394426,-2.143583 z"
         id="path6517"
         transform="translate(-27.992829,-10.545685)" />
      <path
         id="path6410"
         style="fill:#d3bc5f;stroke-width:0.264999"
         d="m 44.282052,83.773181 a 1.9349881,4.0634751 39.519762 0 0 -3.269568,2.134237 1.9349881,4.0634751 39.519762 0 0 -1.027328,1.591634 6.9982071,5.3534675 0 0 1 2.536796,2.261361 1.9349881,4.0634751 39.519762 0 0 1.475879,-1.390096 1.9349881,4.0634751 39.519762 0 0 1.092957,-4.366142 1.9349881,4.0634751 39.519762 0 0 -0.808736,-0.230994 z" />
      <path
         id="path6407"
         style="fill:#c87137;stroke-width:0.264999"
         d="m 44.016435,83.528235 a 1.9349881,4.0634751 39.519762 0 0 -3.429248,2.134753 1.9349881,4.0634751 39.519762 0 0 -1.045415,1.630908 6.9982071,5.3534675 0 0 1 2.73265,2.091346 1.9349881,4.0634751 39.519762 0 0 1.298112,-1.259872 1.9349881,4.0634751 39.519762 0 0 1.093473,-4.365625 1.9349881,4.0634751 39.519762 0 0 -0.649572,-0.23151 z" />
      <path
         id="path6404"
         style="fill:#d3bc5f;stroke-width:0.264999"
         d="m 43.022697,83.579395 a 1.9349881,4.0634751 39.519762 0 0 -3.429248,2.134753 1.9349881,4.0634751 39.519762 0 0 -0.870748,1.286226 6.9982071,5.3534675 0 0 1 3.166732,1.916679 1.9349881,4.0634751 39.519762 0 0 0.689363,-0.740006 1.9349881,4.0634751 39.519762 0 0 1.093474,-4.366142 1.9349881,4.0634751 39.519762 0 0 -0.649573,-0.23151 z" />
      <path
         id="path6401"
         style="fill:#c87137;stroke-width:0.264999"
         d="m 42.597917,83.334448 a 1.9349881,4.0634751 39.519762 0 0 -3.429248,2.134754 1.9349881,4.0634751 39.519762 0 0 -0.93121,1.399397 6.9982071,5.3534675 0 0 1 3.320211,1.712557 1.9349881,4.0634751 39.519762 0 0 0.595829,-0.649056 1.9349881,4.0634751 39.519762 0 0 1.093474,-4.366141 1.9349881,4.0634751 39.519762 0 0 -0.649056,-0.231511 z" />
      <path
         id="path6398"
         style="fill:#d3bc5f;stroke-width:0.219754"
         d="m 41.170614,83.867749 a 1.5896202,3.4014802 36.200083 0 0 -2.737818,1.838647 1.5896202,3.4014802 36.200083 0 0 -0.67231,1.062468 6.9982071,5.3534675 0 0 1 2.974495,1.161686 1.5896202,3.4014802 36.200083 0 0 0.08113,-0.102836 1.5896202,3.4014802 36.200083 0 0 0.872815,-3.760494 1.5896202,3.4014802 36.200083 0 0 -0.518314,-0.199471 z" />
      <path
         id="path6395"
         style="fill:#c87137;stroke-width:0.219754"
         d="m 40.831099,83.656909 a 1.5896202,3.4014802 36.200083 0 0 -2.737817,1.838648 1.5896202,3.4014802 36.200083 0 0 -0.743624,1.207161 6.9982071,5.3534675 0 0 1 3.045292,1.017509 1.5896202,3.4014802 36.200083 0 0 0.08165,-0.103353 1.5896202,3.4014802 36.200083 0 0 0.872815,-3.760494 1.5896202,3.4014802 36.200083 0 0 -0.518315,-0.199471 z" />
    </g>
  </g>
  <g
     id="g6338"
     transform="matrix(0.90989052,0,0,0.9730272,-20.868966,-65.879176)">
    <g
       id="g6324">
      <ellipse
         style="fill:#d3bc5f;fill-opacity:1;stroke-width:0.264999"
         id="ellipse6320"
         cx="116.1214"
         cy="29.880177"
         rx="1.9349881"
         ry="4.0634751"
         transform="rotate(39.519762)" />
      <ellipse
         style="fill:#c87137;fill-opacity:1;stroke-width:0.264999"
         id="ellipse6322"
         cx="115.63762"
         cy="29.961859"
         rx="1.9349881"
         ry="4.0634751"
         transform="rotate(39.519762)" />
    </g>
    <g
       id="g6330"
       transform="translate(-1.4189913,-0.19349882)">
      <ellipse
         style="fill:#d3bc5f;fill-opacity:1;stroke-width:0.264999"
         id="ellipse6326"
         cx="116.1214"
         cy="29.880177"
         rx="1.9349881"
         ry="4.0634751"
         transform="rotate(39.519762)" />
      <ellipse
         style="fill:#c87137;fill-opacity:1;stroke-width:0.264999"
         id="ellipse6328"
         cx="115.63762"
         cy="29.961859"
         rx="1.9349881"
         ry="4.0634751"
         transform="rotate(39.519762)" />
    </g>
    <g
       id="g6336"
       transform="matrix(0.49007021,-0.47048061,0.2991109,1.0263206,4.429939,28.968856)">
      <ellipse
         style="fill:#222221;fill-opacity:1;stroke-width:0.264999"
         id="ellipse6340"
         cx="115.32726"
         cy="30.408913"
         rx="1.9349881"
         ry="4.0634751"
         transform="rotate(39.519761)" />
      <ellipse
         style="fill:#d3bc5f;fill-opacity:1;stroke-width:0.264999"
         id="ellipse6332"
         cx="116.1214"
         cy="29.880177"
         rx="1.9349881"
         ry="4.0634751"
         transform="rotate(39.519762)" />
      <ellipse
         style="fill:#c87137;fill-opacity:1;stroke-width:0.264999"
         id="ellipse6334"
         cx="115.63762"
         cy="29.961859"
         rx="1.9349881"
         ry="4.0634751"
         transform="rotate(39.519762)" />
    </g>
  </g>
  <g
     id="layer5"
     transform="translate(-50.716217,-52.008437)">
    <path
       style="fill:#222221;fill-opacity:1;stroke-width:0.264999"
       d="m 86.655404,89.027025 c 1.430847,-0.550626 2.143902,3.713348 2.143902,3.713348 0,0 -0.994452,-4.248521 0.911842,-3.622132 1.822391,0.59882 1.131578,3.713349 1.131578,3.713349 0,0 1.898666,-3.526632 3.52045,-1.478552 0.805318,1.017002 -2.782094,9.440882 -5.974663,9.532092 -3.267894,-0.008 -4.670879,-9.963972 -1.733109,-11.858105 z"
       id="path6521" />
    <path
       style="fill:#c87137;fill-opacity:1;stroke-width:0.245166"
       d="m 86.986315,89.526646 c 1.278553,-0.527426 1.915712,3.556893 1.915712,3.556893 0,0 -0.888606,-4.069517 0.814789,-3.46952 1.628422,0.57359 1.011137,3.556893 1.011137,3.556893 0,0 1.696578,-3.378043 3.145744,-1.416255 0.719604,0.974152 -2.485976,9.043103 -5.338739,9.130473 -2.92007,-0.008 -4.173726,-9.544157 -1.548643,-11.358484 z"
       id="path6523" />
    <ellipse
       style="fill:#d3bc5f;fill-opacity:1;stroke-width:0.264999"
       id="path6525"
       cx="87.134285"
       cy="91.740707"
       rx="0.52449322"
       ry="1.2086148" />
    <ellipse
       style="fill:#d3bc5f;fill-opacity:1;stroke-width:0.264999"
       id="path6527"
       cx="89.893585"
       cy="91.854729"
       rx="0.45608106"
       ry="1.1402028" />
    <ellipse
       style="fill:#d3bc5f;fill-opacity:1;stroke-width:0.264999"
       id="path6529"
       cx="123.02325"
       cy="45.570526"
       rx="0.72972971"
       ry="1.1858108"
       transform="rotate(24.702431)" />
    <ellipse
       style="fill:#d3bc5f;fill-opacity:1;stroke-width:0.264999"
       id="path6531"
       cx="88.616554"
       cy="99.266052"
       rx="1.277027"
       ry="0.84374994" />
    <path
       style="fill:#d3bc5f;fill-opacity:1;stroke-width:0.264999"
       d="m 75.344593,70.236487 -0.182433,1.368242 c 0,0 2.097974,-2.097974 3.739867,-0.364866 1.641891,1.733108 -3.557434,-1.003376 -3.557434,-1.003376 z"
       id="path6587" />
    <path
       style="fill:#d3bc5f;fill-opacity:1;stroke-width:0.264999"
       d="m 70.327702,69.962836 0.469939,1.753838 c 0,0 -2.476695,-1.115324 -3.206427,0.344136 -0.729729,1.45946 -0.814395,1.410576 -0.814395,1.410576 z"
       id="path6589" />
    <circle
       style="fill:#222221;fill-opacity:1;stroke-width:0.264999"
       id="path6730"
       cx="71.981552"
       cy="81.527496"
       r="0.38699761" />
    <ellipse
       style="fill:#222221;fill-opacity:1;stroke-width:0.264999"
       id="path6734"
       cx="69.079079"
       cy="82.559494"
       rx="0.32249802"
       ry="0.25799841" />
    <ellipse
       style="fill:#222221;fill-opacity:1;stroke-width:0.264999"
       id="path6736"
       cx="71.594566"
       cy="83.139992"
       rx="0.38699761"
       ry="0.19349881" />
  </g>
</svg>
